<?xml version="1.0" encoding="UTF-8"?>
<svg width="66px" height="93px" viewBox="0 0 66 93" version="1.1" xmlns="http://www.w3.org/2000/svg" xmlns:xlink="http://www.w3.org/1999/xlink">
    <!-- Generator: Sketch 48.2 (47327) - http://www.bohemiancoding.com/sketch -->
    <title>Shape</title>
    <desc>Created with Sketch.</desc>
    <defs></defs>
    <g id="Page-1" stroke="none" stroke-width="1" fill="none" fill-rule="evenodd">
        <path d="M47.858,67.306 C47.88,67.373 48.419,68.967 47.643,70.517 C47.492,70.824 47.184,70.997 46.866,70.997 C46.735,70.997 46.604,70.969 46.477,70.906 C46.048,70.69 45.873,70.17 46.087,69.74 C46.445,69.02 46.306,68.239 46.236,67.969 L41.527,61.208 C41.253,60.813 41.348,60.272 41.744,59.999 C42.14,59.724 42.68,59.82 42.954,60.215 L47.747,67.094 C47.795,67.159 47.831,67.229 47.858,67.306 Z M22.463,30.71 C23.062,30.743 27.694,30.76 32.329,30.76 C36.964,30.76 41.598,30.743 42.196,30.71 C42.675,30.684 43.043,30.273 43.016,29.794 C42.989,29.315 42.578,28.949 42.1,28.974 C41.003,29.035 23.654,29.035 22.559,28.974 C22.086,28.948 21.668,29.315 21.641,29.794 C21.616,30.273 21.983,30.684 22.463,30.71 Z M44.962,69.532 C45.239,69.924 45.148,70.467 44.754,70.743 L44.201,71.135 C44.055,71.239 43.88,71.294 43.7,71.294 C43.676,71.294 43.651,71.293 43.63,71.29 C43.446,71.276 43.264,71.263 43.081,71.248 C41.975,73.283 40.751,74.524 32.827,74.524 C25.835,74.524 23.809,73.423 22.579,71.254 C22.427,71.266 22.274,71.276 22.124,71.288 C22.099,71.291 22.077,71.292 22.053,71.292 C21.873,71.292 21.699,71.236 21.552,71.133 L20.999,70.741 C20.606,70.465 20.513,69.922 20.789,69.53 C21.067,69.138 21.608,69.045 22.001,69.321 L22.298,69.53 C24.589,69.349 30.642,68.931 32.028,69.426 C32.047,69.432 32.229,69.491 32.876,69.522 C33.522,69.493 33.706,69.432 33.725,69.426 C35.113,68.93 41.164,69.35 43.455,69.53 L43.751,69.321 C44.142,69.047 44.687,69.14 44.962,69.532 Z M41.123,71.111 C37.919,70.914 34.914,70.848 34.311,71.065 C34.008,71.171 33.58,71.233 32.915,71.259 C32.901,71.26 32.89,71.257 32.878,71.258 C32.864,71.257 32.851,71.26 32.838,71.259 C32.174,71.233 31.744,71.171 31.442,71.065 C30.835,70.846 27.799,70.914 24.577,71.115 C25.383,72.009 27.16,72.787 32.827,72.787 C38.795,72.787 40.346,72.119 41.123,71.111 Z M19.06,34.205 C20.45,34.282 22.544,34.523 24.625,35.23 C26.836,35.979 29.808,36.353 32.778,36.353 C35.752,36.353 38.722,35.979 40.934,35.23 C43.015,34.523 45.11,34.282 46.499,34.205 C46.978,34.179 47.345,33.768 47.318,33.288 C47.291,32.809 46.876,32.442 46.4,32.469 C44.222,32.59 42.193,32.965 40.374,33.582 C36.329,34.954 29.228,34.954 25.184,33.582 C23.362,32.964 21.332,32.589 19.155,32.468 C18.679,32.44 18.264,32.808 18.24,33.287 C18.212,33.768 18.579,34.179 19.06,34.205 Z M63.169,59.027 C62.033,62.387 60.62,64.489 58.971,65.276 C58.593,65.456 58.251,65.545 57.959,65.58 C57.849,66.226 57.747,66.905 57.631,67.677 L57.61,67.822 C56.881,72.674 56.059,78.174 51.735,82.499 C50.217,84.016 48.227,85.535 45.815,87.02 C45.737,87.069 45.655,87.098 45.573,87.121 C44.395,89.112 40.362,92.332 32.913,92.332 C32.907,92.332 32.901,92.329 32.895,92.329 C32.889,92.329 32.883,92.332 32.877,92.332 C25.428,92.332 21.395,89.112 20.217,87.121 C20.134,87.1 20.052,87.069 19.977,87.02 C17.563,85.537 15.573,84.014 14.055,82.499 C9.731,78.173 8.908,72.673 8.181,67.819 L8.16,67.677 C8.049,66.935 7.943,66.246 7.832,65.58 C7.539,65.545 7.195,65.456 6.818,65.276 C5.17,64.489 3.756,62.387 2.62,59.027 C0.529,52.848 -0.908,42.253 1.464,40.83 C1.797,40.629 2.192,40.597 2.57,40.737 C2.765,40.81 2.967,40.954 3.173,41.15 L3.02,39.395 C3,39.223 2.987,38.782 3.285,38.386 C3.436,38.185 3.718,37.932 4.203,37.867 C4.46,37.838 4.72,37.812 4.979,37.785 C4.721,36.791 4.513,35.745 4.369,34.665 C4.182,33.285 4.106,31.929 4.134,30.644 C3.723,30.642 3.361,30.348 3.284,29.929 C3.044,28.593 2.922,27.205 2.922,25.806 C2.922,19.928 5.119,14.493 8.668,11.521 C9.362,10.1 10.481,9.024 11.989,8.339 C12.342,6.941 13.14,4.944 14.985,3.33 C17.388,1.225 20.838,0.388 25.233,0.844 C30.661,1.406 35.684,0.287 35.735,0.278 C35.737,0.278 35.739,0.278 35.742,0.277 C35.748,0.276 35.75,0.275 35.755,0.274 C35.791,0.266 35.828,0.265 35.864,0.262 C35.883,0.261 35.899,0.257 35.917,0.257 C35.921,0.257 35.925,0.256 35.93,0.256 C35.93,0.256 35.931,0.256 35.933,0.256 C35.941,0.256 35.947,0.258 35.954,0.258 C35.979,0.259 36.003,0.263 36.026,0.266 C36.047,0.268 36.067,0.268 36.087,0.271 C36.092,0.272 36.096,0.272 36.101,0.273 C36.126,0.278 36.152,0.288 36.175,0.294 C36.178,0.295 36.181,0.297 36.184,0.297 C36.205,0.303 36.228,0.307 36.247,0.316 C36.253,0.317 36.256,0.319 36.262,0.322 C36.287,0.333 36.312,0.347 36.336,0.36 C36.336,0.36 36.336,0.36 36.337,0.361 C36.357,0.372 36.376,0.38 36.398,0.392 C36.402,0.394 36.408,0.398 36.413,0.402 C36.434,0.416 36.454,0.434 36.475,0.45 C36.495,0.465 36.514,0.479 36.532,0.496 C36.537,0.499 36.54,0.504 36.545,0.508 C36.564,0.526 36.578,0.546 36.593,0.565 C36.613,0.586 36.629,0.606 36.646,0.628 C36.648,0.631 36.652,0.634 36.654,0.637 C36.654,0.638 36.654,0.638 36.656,0.639 C36.67,0.66 36.679,0.685 36.693,0.708 C36.705,0.731 36.718,0.752 36.73,0.776 C36.73,0.781 36.734,0.786 36.736,0.792 C36.746,0.813 36.751,0.836 36.757,0.858 C36.758,0.864 36.761,0.87 36.762,0.876 C36.766,0.889 36.773,0.9 36.777,0.914 C37.414,0.848 38.053,0.789 38.695,0.743 C39.646,0.675 40.598,0.629 41.527,0.606 L41.529,0.606 C50.439,0.387 53.436,5.496 54.406,8.263 C56.002,8.943 57.177,10.047 57.898,11.522 C61.447,14.494 63.646,19.929 63.646,25.807 C63.646,27.202 63.523,28.588 63.283,29.93 C63.209,30.348 62.844,30.643 62.432,30.645 C62.457,31.93 62.382,33.286 62.197,34.666 C62.049,35.785 61.827,36.864 61.556,37.89 C61.994,37.976 62.254,38.202 62.396,38.388 C62.691,38.783 62.677,39.222 62.658,39.396 L62.495,41.278 C62.745,41.015 62.99,40.826 63.226,40.738 C63.607,40.598 63.999,40.63 64.333,40.831 C66.696,42.253 65.259,52.851 63.169,59.027 Z M12.052,30.916 C12.038,30.981 12.016,31.041 11.99,31.099 C11.716,32.752 11.572,34.572 11.572,36.567 C11.572,36.824 11.56,37.083 11.545,37.342 C12.326,37.319 13.095,37.305 13.838,37.305 L13.975,37.305 C20.034,37.317 23.561,38.155 26.673,38.896 C28.793,39.399 30.622,39.834 32.854,39.875 C35.053,39.833 36.884,39.398 39.002,38.896 C42.113,38.155 45.645,37.317 51.699,37.305 L51.837,37.305 C52.618,37.305 53.426,37.32 54.249,37.346 C54.232,37.085 54.222,36.825 54.222,36.567 C54.222,33.601 53.91,30.999 53.296,28.777 C52.063,24.741 49.958,21.915 47.029,20.364 C41.538,17.455 34.795,19.789 33.324,20.361 C33.122,20.462 32.882,20.486 32.648,20.406 C31.271,19.928 24.109,17.707 18.49,20.887 C15.231,22.731 13.065,26.105 12.052,30.916 Z M15.153,21.199 C15.854,20.542 16.623,19.97 17.454,19.482 C17.181,18.656 16.933,17.711 16.778,16.698 C14.288,18.195 12.104,20.774 10.531,24.034 C11.676,23.018 12.921,22.193 14.246,21.596 C14.606,21.434 14.905,21.303 15.153,21.199 Z M45.243,17.795 C45.789,17.95 46.333,18.139 46.871,18.368 C46.487,16.877 45.778,15.07 44.95,13.347 C45.114,14.65 45.229,16.156 45.243,17.795 Z M59.807,37.698 C60.074,36.726 60.286,35.692 60.439,34.616 C60.418,34.572 60.389,34.533 60.376,34.485 C59.042,29.972 56.522,26.265 53.397,24.175 C53.376,24.203 53.354,24.231 53.334,24.259 C54.001,25.425 54.588,26.732 54.944,28.216 C55.619,31.032 55.858,32.74 55.961,36.568 C55.969,36.849 55.982,37.132 56.002,37.422 C57.263,37.487 58.543,37.579 59.807,37.698 Z M56.281,24.259 C55.828,23.113 55.302,21.964 54.694,20.907 C54.641,21.496 54.503,22.083 54.263,22.664 C54.967,23.126 55.639,23.662 56.281,24.259 Z M50.868,11.444 C52.055,13.246 53.306,15.152 54.052,17.081 C56.663,19.851 58.323,24.37 59.261,27.713 C59.279,27.777 59.288,27.841 59.291,27.905 C59.798,28.697 60.267,29.538 60.685,30.425 C60.648,29.195 60.503,28.049 60.255,27.049 C60.14,26.583 60.423,26.111 60.89,25.996 C61.297,25.895 61.712,26.101 61.885,26.469 C61.892,26.249 61.9,26.03 61.9,25.808 C61.9,21.635 60.72,17.728 58.712,14.951 C58.704,15.403 58.355,15.779 57.898,15.805 C57.878,15.806 57.863,15.806 57.845,15.806 C57.388,15.806 57.005,15.449 56.98,14.986 C56.864,12.926 56.111,11.416 54.757,10.454 C54.632,10.718 54.38,10.913 54.068,10.948 C54.038,10.952 54.006,10.953 53.972,10.953 C53.535,10.953 53.16,10.625 53.111,10.181 C53.082,9.923 52.472,5.363 47.552,3.319 C47.087,5.696 48.922,8.488 50.868,11.444 Z M40.806,17.206 C41.685,17.206 42.59,17.268 43.504,17.413 C43.403,12.321 42.22,8.672 42.207,8.634 C42.073,8.23 42.252,7.788 42.629,7.591 C43.006,7.394 43.472,7.498 43.728,7.839 C45.814,10.614 48.424,16.18 48.855,19.434 C50.164,20.295 51.305,21.394 52.275,22.727 C53.181,21.231 53.119,19.644 52.541,17.987 C52.464,17.874 52.42,17.747 52.402,17.617 C51.744,15.937 50.595,14.191 49.418,12.4 C47.352,9.258 45.212,6.01 45.859,2.914 C45.87,2.865 45.884,2.819 45.902,2.774 C44.876,2.518 43.702,2.363 42.364,2.343 C42.323,2.466 42.259,2.582 42.163,2.68 C39.729,5.145 37.968,10.398 40.806,17.206 Z M33.878,7.364 C31.446,10.559 29.349,13.324 34.221,18.22 C35.406,17.863 37.072,17.46 38.968,17.289 C36.435,10.719 37.822,5.421 40.113,2.399 C39.681,2.42 39.249,2.446 38.814,2.477 C38.065,2.53 37.319,2.6 36.582,2.681 C36.122,4.41 34.985,5.907 33.878,7.364 Z M32.781,4.054 C28.177,6.717 23.417,9.47 24.578,14.031 C24.895,15.274 25.524,16.706 26.096,17.485 C28.54,17.551 30.68,18.021 32.017,18.393 C27.413,12.999 30.209,9.313 32.495,6.311 C33.355,5.18 34.183,4.09 34.654,2.956 C34.035,3.328 33.403,3.694 32.781,4.054 Z M19.149,10.819 C17.88,13.517 18.338,16.515 19.026,18.694 C20.694,17.99 22.424,17.645 24.088,17.527 C23.603,16.616 23.156,15.492 22.894,14.46 C21.644,9.551 25.391,6.488 29.543,3.944 C25.278,4.783 20.931,7.033 19.149,10.819 Z M5.667,25.995 C6.135,26.11 6.418,26.582 6.302,27.048 C6.055,28.048 5.911,29.194 5.873,30.425 C6.294,29.532 6.757,28.685 7.266,27.892 C7.271,27.832 7.281,27.771 7.296,27.712 C8.998,21.647 12.381,16.977 16.616,14.798 C16.593,13.259 16.843,11.64 17.577,10.078 C19.334,6.341 23.194,3.921 27.259,2.722 C26.54,2.698 25.803,2.65 25.054,2.573 C21.16,2.172 18.157,2.865 16.13,4.638 C13.577,6.873 13.454,10.075 13.452,10.107 C13.438,10.578 13.053,10.951 12.585,10.951 C12.575,10.951 12.565,10.951 12.56,10.951 C12.22,10.941 11.937,10.738 11.801,10.452 C11.146,10.918 10.632,11.514 10.265,12.241 C10.239,12.345 10.189,12.443 10.122,12.532 C9.815,13.24 9.632,14.056 9.578,14.985 C9.554,15.448 9.169,15.805 8.712,15.805 C8.696,15.805 8.68,15.805 8.663,15.804 C8.206,15.778 7.856,15.404 7.847,14.954 C5.839,17.731 4.659,21.635 4.659,25.807 C4.659,26.028 4.667,26.246 4.673,26.466 C4.848,26.1 5.262,25.894 5.667,25.995 Z M6.729,37.619 C7.752,37.533 8.78,37.466 9.794,37.415 C9.816,37.129 9.832,36.846 9.832,36.567 C9.832,34.45 10.01,32.55 10.342,30.836 C10.33,30.746 10.33,30.652 10.35,30.559 C10.823,28.322 11.532,26.364 12.466,24.685 C9.677,26.835 7.408,30.313 6.184,34.485 C6.163,34.554 6.147,34.608 6.127,34.67 C6.276,35.697 6.479,36.686 6.729,37.619 Z M4.778,39.553 L4.942,41.409 C4.942,41.408 4.942,41.408 4.942,41.408 C4.942,41.408 4.983,41.8 5.124,42.238 C5.722,43.726 6.248,45.235 6.759,46.694 C7.931,50.047 9.039,53.213 10.618,54.965 C11.088,55.487 11.987,56.236 14.349,56.703 C16.119,57.093 17.913,57.295 19.563,57.295 C20.106,57.295 20.628,57.274 21.118,57.231 C23.608,57.084 24.796,56.051 25.631,55.061 C26.523,54.002 27.193,52.781 27.676,51.832 C27.995,51.205 28.284,50.508 28.564,49.836 C29.51,47.557 30.49,45.2 32.837,45.2 C35.183,45.2 36.16,47.556 37.107,49.835 C37.387,50.508 37.677,51.205 37.996,51.832 C38.48,52.779 39.148,54.001 40.043,55.061 C40.877,56.053 42.063,57.082 44.529,57.229 C46.593,57.411 48.974,57.218 51.304,56.708 C53.684,56.236 54.582,55.488 55.054,54.966 C56.632,53.214 57.74,50.049 58.911,46.698 C59.421,45.238 59.948,43.727 60.547,42.238 C60.689,41.797 60.73,41.404 60.73,41.4 L60.892,39.553 C57.884,39.226 54.677,39.045 51.835,39.045 L51.701,39.045 C45.847,39.056 42.423,39.87 39.401,40.588 C37.183,41.114 35.27,41.57 32.85,41.615 C30.401,41.57 28.485,41.114 26.267,40.588 C23.247,39.87 19.825,39.056 13.967,39.045 L13.834,39.045 C10.995,39.045 7.794,39.225 4.778,39.553 Z M63.565,42.612 C62.604,43.758 60.776,48.115 59.491,51.968 C59.399,52.24 59.179,52.45 58.905,52.53 C58.784,52.564 58.659,52.567 58.536,52.55 C57.899,53.953 57.194,55.188 56.346,56.128 C56.025,56.482 55.65,56.795 55.226,57.075 C55.445,57.111 55.666,57.144 55.879,57.187 C56.351,57.282 56.655,57.741 56.562,58.21 C56.478,58.622 56.116,58.908 55.71,58.908 C55.651,58.908 55.595,58.902 55.537,58.889 C54.213,58.622 52.806,58.489 51.354,58.489 C51.328,58.489 51.299,58.483 51.274,58.481 C49.539,58.835 47.755,59.031 46.106,59.031 C45.511,59.031 44.938,59.007 44.399,58.96 C41.282,58.776 39.72,57.377 38.711,56.181 C37.702,54.986 36.972,53.651 36.445,52.619 C36.094,51.931 35.792,51.202 35.499,50.498 C34.579,48.281 33.941,46.936 32.836,46.936 C31.729,46.936 31.09,48.282 30.169,50.498 C29.876,51.204 29.574,51.931 29.225,52.619 C28.699,53.65 27.965,54.985 26.959,56.181 C25.948,57.377 24.385,58.778 21.245,58.962 C20.732,59.007 20.158,59.031 19.562,59.031 C17.923,59.031 16.156,58.839 14.417,58.485 C14.405,58.486 14.396,58.489 14.382,58.489 C12.931,58.489 11.525,58.624 10.199,58.889 C10.141,58.902 10.085,58.908 10.026,58.908 C9.622,58.908 9.258,58.622 9.174,58.21 C9.08,57.739 9.385,57.28 9.856,57.187 C10.053,57.148 10.254,57.118 10.455,57.083 C10.026,56.801 9.645,56.486 9.324,56.127 C8.473,55.186 7.77,53.955 7.133,52.553 C7.051,52.555 6.969,52.545 6.89,52.524 C6.617,52.445 6.388,52.242 6.297,51.968 C5.011,48.114 3.185,43.757 2.222,42.612 C1.584,44.415 2.023,51.836 4.265,58.468 C5.551,62.268 6.885,63.381 7.566,63.705 C7.578,63.71 7.587,63.713 7.595,63.717 L7.181,60.813 C7.115,60.335 7.446,59.897 7.92,59.83 C8.396,59.767 8.834,60.094 8.901,60.567 L9.875,67.406 C9.877,67.411 9.877,67.415 9.877,67.419 L9.898,67.56 C10.619,72.372 11.364,77.347 15.284,81.267 C16.357,82.341 17.7,83.426 19.284,84.501 C18.163,80.877 16.2,74.172 16.096,73.813 C15.961,73.352 16.227,72.87 16.686,72.735 C17.147,72.6 17.63,72.865 17.766,73.326 C17.797,73.436 21.007,84.401 21.585,85.977 C22.036,87.207 25.552,90.588 32.876,90.588 C32.882,90.588 32.888,90.589 32.895,90.589 C32.901,90.589 32.906,90.588 32.912,90.588 C40.237,90.588 43.752,87.207 44.204,85.977 C44.782,84.401 47.992,73.436 48.024,73.326 C48.16,72.865 48.641,72.602 49.102,72.735 C49.563,72.87 49.827,73.352 49.692,73.813 C49.588,74.17 47.625,80.875 46.504,84.501 C48.087,83.426 49.429,82.341 50.504,81.267 C54.422,77.349 55.167,72.374 55.888,67.564 L55.909,67.419 C55.911,67.415 55.911,67.411 55.912,67.406 L56.885,60.567 C56.952,60.092 57.399,59.764 57.867,59.83 C58.343,59.897 58.674,60.337 58.605,60.813 L58.189,63.736 C59.003,63.348 60.312,62.043 61.521,58.468 C63.767,51.836 64.204,44.415 63.565,42.612 Z M52.685,65.495 C52.683,65.495 52.681,65.495 52.677,65.495 C52.198,65.5 51.81,65.891 51.816,66.371 C51.82,66.955 51.795,67.551 51.744,68.143 C51.744,68.145 51.744,68.147 51.744,68.147 C51.698,68.663 51.632,69.184 51.546,69.699 C51.4,70.568 51.197,71.424 50.943,72.243 C50.802,72.702 51.058,73.188 51.517,73.331 C51.603,73.356 51.689,73.369 51.775,73.369 C52.146,73.369 52.491,73.13 52.605,72.757 C52.88,71.864 53.101,70.933 53.259,69.986 C53.353,69.426 53.425,68.862 53.474,68.3 C53.474,68.298 53.476,68.298 53.476,68.296 C53.534,67.649 53.558,66.993 53.554,66.356 C53.549,65.88 53.161,65.495 52.685,65.495 Z M14.247,69.697 C14.058,68.572 13.966,67.453 13.976,66.372 C13.98,65.892 13.595,65.5 13.116,65.495 C13.113,65.495 13.109,65.495 13.107,65.495 C12.63,65.495 12.243,65.88 12.238,66.356 C12.228,67.538 12.328,68.759 12.534,69.986 C12.693,70.936 12.914,71.87 13.187,72.757 C13.302,73.13 13.648,73.369 14.017,73.369 C14.103,73.369 14.189,73.356 14.275,73.331 C14.734,73.188 14.992,72.702 14.847,72.243 C14.595,71.431 14.396,70.573 14.247,69.697 Z M26.907,63.45 L29.172,63.45 C29.592,63.815 30.45,64.567 30.872,64.988 C31.14,65.256 31.501,65.445 31.899,65.559 L31.899,67.29 C31.899,67.769 32.289,68.16 32.77,68.16 C33.249,68.16 33.638,67.769 33.638,67.29 L33.638,65.6 C34.096,65.493 34.514,65.288 34.817,64.988 C35.239,64.567 36.097,63.815 36.518,63.45 L38.782,63.45 C40.13,63.45 40.704,62.791 40.927,62.397 C41.34,61.668 41.259,60.684 40.708,59.768 C40.161,58.858 39.306,58.307 38.503,58.328 L37.76,58.328 C37.279,58.328 36.89,58.716 36.89,59.196 C36.89,59.675 37.279,60.065 37.76,60.065 L38.527,60.065 L38.529,60.065 C38.665,60.065 38.972,60.253 39.219,60.664 C39.464,61.073 39.48,61.424 39.413,61.542 C39.369,61.621 39.177,61.712 38.782,61.712 L36.194,61.712 C35.987,61.712 35.786,61.786 35.629,61.921 C35.569,61.972 34.203,63.146 33.589,63.758 C33.331,64.017 32.36,64.017 32.101,63.758 C31.488,63.146 30.121,61.972 30.062,61.921 C29.904,61.786 29.704,61.712 29.497,61.712 L26.909,61.712 C26.513,61.712 26.322,61.621 26.277,61.542 C26.212,61.424 26.226,61.073 26.471,60.664 C26.721,60.251 27.018,60.061 27.189,60.065 L27.931,60.065 C28.411,60.065 28.8,59.675 28.8,59.196 C28.8,58.716 28.411,58.328 27.931,58.328 L27.21,58.328 C26.387,58.311 25.528,58.858 24.981,59.768 C24.43,60.684 24.349,61.666 24.762,62.397 C24.985,62.791 25.56,63.45 26.907,63.45 Z M35.726,77.278 C33.878,77.717 31.468,77.697 29.671,77.227 C29.205,77.104 28.732,77.382 28.61,77.848 C28.489,78.311 28.765,78.786 29.231,78.909 C30.307,79.19 31.543,79.339 32.8,79.339 C33.96,79.339 35.112,79.211 36.126,78.97 C36.593,78.859 36.881,78.39 36.772,77.923 C36.661,77.456 36.19,77.167 35.726,77.278 Z M19.399,67.97 L24.11,61.208 C24.384,60.813 24.288,60.272 23.893,59.999 C23.498,59.724 22.956,59.82 22.684,60.215 L17.889,67.094 C17.843,67.159 17.809,67.232 17.783,67.306 C17.759,67.373 17.221,68.967 17.995,70.517 C18.147,70.824 18.455,70.997 18.774,70.997 C18.903,70.997 19.036,70.969 19.162,70.906 C19.592,70.69 19.766,70.17 19.552,69.74 C19.19,69.019 19.334,68.235 19.399,67.97 Z M13.209,50.941 C13.015,50.941 12.819,50.876 12.658,50.744 C12.287,50.439 12.231,49.892 12.535,49.519 L13.192,48.718 C14.64,46.318 21.143,45.722 22.444,45.626 C22.645,45.61 22.841,45.666 23.006,45.782 L25.944,47.848 C26.256,48.068 26.387,48.461 26.272,48.823 C26.159,49.184 25.824,49.428 25.444,49.428 L14.886,49.428 C14.865,49.428 14.842,49.428 14.822,49.426 C14.76,49.492 14.708,49.563 14.67,49.632 C14.645,49.678 14.615,49.721 14.581,49.764 L13.882,50.618 C13.71,50.832 13.461,50.941 13.209,50.941 Z M19.892,47.693 L22.7,47.693 L22.263,47.386 C21.536,47.45 20.717,47.553 19.892,47.693 Z M39.771,47.852 L42.709,45.785 C42.874,45.669 43.07,45.613 43.273,45.629 C44.557,45.723 50.919,46.306 52.469,48.634 L53.411,49.396 C53.785,49.699 53.842,50.247 53.541,50.62 C53.369,50.833 53.117,50.943 52.862,50.943 C52.672,50.943 52.477,50.88 52.317,50.75 L51.257,49.895 C51.17,49.824 51.096,49.737 51.043,49.639 C51.004,49.569 50.953,49.499 50.891,49.432 C50.87,49.434 50.846,49.434 50.826,49.434 L40.269,49.434 C39.889,49.434 39.554,49.19 39.441,48.829 C39.326,48.465 39.46,48.07 39.771,47.852 Z M43.017,47.693 L45.825,47.693 C45,47.552 44.18,47.45 43.454,47.386 L43.017,47.693 Z M8.065,44.554 C8.225,41.973 10.989,40.665 16.276,40.665 C19.108,40.665 22.115,41.024 24.13,41.293 C26.502,41.611 28.01,42.312 28.743,43.436 C29.58,44.718 29.151,46.196 28.922,46.99 L28.88,47.136 C27.099,53.338 24.831,56.627 22.139,56.914 C21.482,57.039 20.619,57.103 19.638,57.103 C17.57,57.103 14.538,56.793 12.808,55.925 C9.356,54.195 7.837,48.209 8.065,44.554 Z M14.597,42.458 L24.117,43.387 C24.138,43.389 24.161,43.392 24.183,43.396 C24.447,43.442 25.984,43.741 27.337,44.486 C27.321,44.453 27.307,44.418 27.287,44.386 C26.858,43.73 25.686,43.257 23.897,43.017 C21.931,42.754 19.002,42.404 16.276,42.404 C15.772,42.404 15.194,42.419 14.597,42.458 Z M13.588,54.373 C14.751,54.958 17.237,55.366 19.637,55.366 C20.515,55.366 21.3,55.307 21.845,55.201 C21.873,55.195 21.904,55.19 21.931,55.188 C22.474,55.137 23.557,54.729 24.812,52.633 C23.775,53.037 22.107,53.468 19.689,53.468 C19.536,53.468 19.377,53.467 19.218,53.464 C18.736,53.453 18.357,53.055 18.366,52.574 C18.378,52.095 18.765,51.7 19.257,51.724 C23.367,51.819 25.069,50.58 25.085,50.569 C25.326,50.381 25.635,50.341 25.901,50.434 C26.335,49.408 26.772,48.165 27.207,46.654 L27.25,46.508 C26.415,45.768 24.771,45.267 23.912,45.111 L10.558,43.809 C10.446,43.798 10.341,43.764 10.246,43.716 C9.984,43.977 9.82,44.288 9.798,44.66 C9.58,48.164 11.188,53.168 13.588,54.373 Z M36.75,46.99 C36.521,46.195 36.094,44.717 36.93,43.435 C37.662,42.311 39.172,41.611 41.542,41.293 C43.558,41.024 46.563,40.665 49.396,40.665 C54.683,40.665 57.447,41.973 57.607,44.554 C57.836,48.208 56.314,54.194 52.866,55.929 C51.136,56.796 48.103,57.105 46.036,57.105 C45.056,57.105 44.191,57.042 43.534,56.917 C40.846,56.63 38.578,53.343 36.796,47.146 L36.75,46.99 Z M55.156,43.811 L41.804,45.113 C40.786,45.299 39.213,45.815 38.429,46.542 L38.463,46.662 C38.901,48.183 39.34,49.433 39.774,50.469 C40.054,50.342 40.395,50.365 40.658,50.567 C40.706,50.6 42.436,51.818 46.495,51.728 C46.974,51.705 47.372,52.097 47.384,52.577 C47.396,53.057 47.015,53.456 46.534,53.467 C46.374,53.47 46.216,53.471 46.061,53.471 C43.548,53.471 41.84,53.006 40.813,52.588 C42.011,54.63 43.073,55.127 43.741,55.19 C43.768,55.194 43.798,55.198 43.826,55.204 C44.371,55.309 45.155,55.369 46.034,55.369 C48.43,55.369 50.921,54.961 52.083,54.376 C54.483,53.171 56.09,48.167 55.871,44.666 C55.849,44.301 55.69,43.994 55.436,43.735 C55.35,43.772 55.257,43.802 55.156,43.811 Z M38.317,44.517 C39.686,43.749 41.264,43.444 41.534,43.396 C41.555,43.393 41.578,43.389 41.6,43.387 L51.097,42.461 C50.491,42.419 49.905,42.404 49.393,42.404 C46.666,42.404 43.739,42.754 41.772,43.016 C39.983,43.256 38.811,43.729 38.384,44.385 C38.356,44.428 38.339,44.473 38.317,44.517 Z" id="Shape" fill="#34387D" fill-rule="nonzero"></path>
    </g>
</svg>